<svg width="73" height="73" viewBox="0 0 73 73" fill="none" xmlns="http://www.w3.org/2000/svg">
<circle cx="36.5" cy="36.5" r="36.5" fill="#0064FF"/>
<path d="M43.44 18.56H48.76V46.24H43.44V18.56ZM47.24 29.84H53.68V34.2H47.24V29.84ZM19.6 22.4H41.4V26.56H19.6V22.4ZM30.52 27.88C35.84 27.88 39.6 30.8 39.6 35.04C39.6 39.28 35.84 42.16 30.52 42.16C25.16 42.16 21.4 39.28 21.4 35.04C21.4 30.8 25.16 27.88 30.52 27.88ZM30.52 31.92C28.16 31.92 26.52 33.04 26.52 35.04C26.52 37.04 28.16 38.12 30.52 38.12C32.88 38.12 34.52 37.04 34.52 35.04C34.52 33.04 32.88 31.92 30.52 31.92ZM27.84 18.48H33.16V24.44H27.84V18.48ZM24.88 50.68H50.08V54.92H24.88V50.68ZM24.88 44.16H30.2V52.52H24.88V44.16Z" fill="white"/>
</svg>
